<?xml version="1.0" encoding="utf-8"?>
<!-- Generator: Adobe Illustrator 26.3.1, SVG Export Plug-In . SVG Version: 6.00 Build 0)  -->
<svg version="1.1" id="Layer_1" xmlns="http://www.w3.org/2000/svg" xmlns:xlink="http://www.w3.org/1999/xlink" x="0px" y="0px"
	 viewBox="0 0 1444.6 664.1" style="enable-background:new 0 0 1444.6 664.1;" xml:space="preserve">
<style type="text/css">
	.st0{fill:#C1C2E1;}
	.st1{fill:#1A2C59;}
	.st2{fill:#EFD6BC;}
	.st3{fill:#295A6E;}
	.st4{fill:#184056;}
	.st5{fill:#D1AB49;}
	.st6{fill:#DCDDEE;}
	.st7{fill:#E2B688;}
	.st8{fill:#F2DDC8;}
	.st9{fill:#E5CF96;}
	.st10{fill:#A57633;}
	.st11{fill:#2C3D66;}
	.st12{fill:#F3E9D0;}
	.st13{fill:#477988;}
	.st14{fill:#396F7F;}
	.st15{fill:#CF8639;}
	.st16{fill:#D69755;}
	.st17{fill:#DABC6D;}
	.st18{fill:#5D8996;}
	.st19{fill:#33436B;}
	.st20{fill:#755227;}
	.st21{fill:#A2573F;}
	.st22{fill:#F8F7FD;}
	.st23{fill:#CACBD2;}
	.st24{fill:#AF6F5A;}
	.st25{fill:#353783;}
	.st26{fill:#6E6FA6;}
	.st27{fill:#D99E61;}
	.st28{fill:#8687B5;}
	.st29{fill:#B78151;}
	.st30{fill:#C0C2DF;}
	.st31{fill:#D87454;}
	.st32{fill:#DC8265;}
	.st33{fill:#FFFFFF;}
	.st34{fill:#6C3A2A;}
	.st35{fill:#5CBEC6;}
	.st36{fill:#D0862F;}
	.st37{fill:#CACAD3;}
	.st38{fill:#434A59;}
	.st39{fill:#132044;}
	.st40{fill:#142143;}
	.st41{fill:none;}
	.st42{fill:#5D667D;}
	.st43{fill:#F8E3AB;}
	.st44{fill:#E7F2F2;}
	.st45{display:none;}
	.st46{display:inline;}
	.st47{fill:#5D5F9C;}
	.st48{fill:#343484;}
	.st49{fill:#E09076;}
	.st50{display:inline;fill:#343484;}
	.st51{fill:#0E232D;}
	.st52{fill:#444444;}
	.st53{fill:#FFF466;}
	.st54{fill:#FFE164;}
	.st55{fill:#FFAE43;}
	.st56{fill:#FFAC92;}
	.st57{fill:#FF867A;}
	.st58{fill:#AA8966;}
	.st59{fill:#767676;}
	.st60{fill:#E2B684;}
	.st61{fill:#5E5E5E;}
	.st62{fill:#192B5A;}
	.st63{fill:#875B26;}
	.st64{clip-path:url(#SVGID_00000122721863610866128850000014860206319769587089_);}
	.st65{clip-path:url(#SVGID_00000088845410369000345770000001648949996738884233_);}
	.st66{fill:#547B8B;}
	.st67{clip-path:url(#SVGID_00000122681054546161026650000006901650755429426346_);}
	.st68{fill:#CDCEE7;}
	.st69{fill:#1D2A4B;}
	.st70{clip-path:url(#SVGID_00000065781231044659014050000014942178333190149785_);}
	.st71{fill:#4A556F;}
	.st72{clip-path:url(#SVGID_00000092445271573277844240000018245482164257049532_);}
	.st73{fill:#434D69;}
</style>
<path class="st0" d="M1427.5,616.5c0,2.4-6.9,4.7-19.7,6.9c-74.9,12.9-354.8,22.5-688.5,22.5c-273.1,0-510-6.4-628.2-15.8
	c-51.2-4.1-80-8.7-80-13.6c0-3.2,12.4-6.3,35.3-9.2c92.9-11.7,359.1-20.2,672.9-20.2c366.9,0,668.6,11.6,704.6,26.4
	C1426.3,614.5,1427.5,615.6,1427.5,616.5z"/>
<g>
	<g>
		<path class="st1" d="M944.1,555.1c-7.9-82.7,58.6-180.4,61.4-184.4l4.3,0.2c-0.7,1-67.9,102.9-60.2,183.7L944.1,555.1L944.1,555.1
			z"/>
		<path class="st1" d="M951.4,486.9c0,0,38.8-33.4,100.2-2.6c0,0-14.5,8.7-40.3,2.8c0,0-12.2,6.3-20.8,3.3c-8.6-2.9-6.6-2.6-6.6-2.6
			S977.3,492.7,951.4,486.9z"/>
		<path class="st1" d="M976.6,421.3c0,0,25.2-24.9,69.1-6.6c0,0-9.6,6.6-27.7,3.9c0,0-8.1,4.9-14.2,3.3c-6-1.7-4.7-1.5-4.7-1.5
			S994.8,424,976.6,421.3z"/>
		<path class="st1" d="M988.5,398.7c0,0,17.2-21.5,52.7-11.3c0,0-6.8,6-21,5.5c0,0-5.8,4.5-10.6,3.8s-3.8-0.8-3.8-0.8
			S1002.7,399.1,988.5,398.7z"/>
		<path class="st1" d="M1005.2,372.1c0,0,17.2-21.5,52.7-11.3c0,0-6.8,6-21,5.5c0,0-5.8,4.5-10.6,3.8c-4.8-0.7-3.8-0.8-3.8-0.8
			S1019.3,372.6,1005.2,372.1z"/>
		<path class="st1" d="M958.3,482.1c0,0-24.9-44.7-93.2-36.9c0,0,10.6,13.1,36.9,16.5c0,0,9.3,10.1,18.4,10.2c9,0.2,7.2-0.2,7.2-0.2
			S932,478.7,958.3,482.1z"/>
		<path class="st1" d="M944.4,524.5c0,0,43-27.8,99.6,11.1c0,0-15.5,6.6-40.3-2.7c0,0-13,4.6-21,0.5c-8.1-4.1-6.2-3.5-6.2-3.5
			S969.2,533.7,944.4,524.5z"/>
		<path class="st1" d="M950.3,521.1c0,0-29-42.2-96.2-28c0,0,11.8,12.1,38.3,13c0,0,10.2,9.2,19.2,8.5c9-0.7,7.1-0.9,7.1-0.9
			S923.8,520.2,950.3,521.1z"/>
		<path class="st1" d="M970.9,445c0,0-16-40.9-74.9-42.4c0,0,7.5,12.4,29.4,18.4c0,0,6.7,9.7,14.4,10.9c7.7,1.2,6.1,0.7,6.1,0.7
			S948.9,439,970.9,445z"/>
		<path class="st1" d="M984.8,415.4c0,0-6.7-36.7-55.7-47.3c0,0,4.2,11.5,21.6,20c0,0,4.1,9.2,10.2,11.4c6.2,2.3,5,1.5,5,1.5
			S967.5,406.9,984.8,415.4z"/>
		<path class="st1" d="M996,392.3c0,0,5.3-25.5-23.6-45.4c0,0-0.3,8.6,8.7,18.7c0,0,0.2,7,3.6,10.1c3.5,3.1,2.9,2.3,2.9,2.3
			S986.9,382.2,996,392.3z"/>
		<path class="st1" d="M1007.3,374.9c0,0,5.3-25.5-23.6-45.4c0,0-0.3,8.6,8.7,18.7c0,0,0.2,7,3.6,10.1c3.5,3.1,2.9,2.3,2.9,2.3
			S998.2,364.8,1007.3,374.9z"/>
		<path class="st1" d="M963.8,449.8c0,0,32.6-29.5,86-4.4c0,0-12.2,7.7-34.5,3.3c0,0-10.3,5.7-17.8,3.3c-7.4-2.3-5.7-2.2-5.7-2.2
			S986.2,454.3,963.8,449.8z"/>
	</g>
	<g>
		<path class="st3" d="M947.6,546.2c7.2-62.4-41.8-137.2-43.9-140.4l-3.3,0.1c0.5,0.8,49.9,78.8,43,139.8L947.6,546.2L947.6,546.2z"
			/>
		<path class="st3" d="M943,494.5c0,0-28.9-25.9-75.8-3.4c0,0,10.8,6.7,30.4,2.7c0,0,9.1,5,15.7,2.8c6.6-2.1,5-2,5-2
			S923.4,498.5,943,494.5z"/>
		<path class="st3" d="M924.9,444.5c0,0-18.7-19.2-52.2-6c0,0,7.2,5.2,20.9,3.3c0,0,6.1,3.8,10.7,2.7c4.6-1.1,3.6-1.1,3.6-1.1
			S911.1,446.4,924.9,444.5z"/>
		<path class="st3" d="M916.2,427.2c0,0-12.7-16.5-39.7-9.3c0,0,5,4.6,15.8,4.4c0,0,4.4,3.5,8,3c3.6-0.5,2.9-0.5,2.9-0.5
			S905.4,427.5,916.2,427.2z"/>
		<path class="st3" d="M904,407c0,0-12.7-16.5-39.7-9.3c0,0,5,4.6,15.8,4.4c0,0,4.4,3.5,8,3c3.6-0.5,2.9-0.5,2.9-0.5
			S893.2,407.1,904,407z"/>
		<path class="st3" d="M937.8,490.8c0,0,19.5-33.5,71.1-26.6c0,0-8.2,9.7-28.1,12c0,0-7.2,7.5-14,7.5s-5.4-0.3-5.4-0.3
			S957.7,488.6,937.8,490.8z"/>
		<path class="st3" d="M947.8,523c0,0-32.1-21.6-75.5,6.9c0,0,11.6,5.2,30.5-1.4c0,0,9.7,3.6,15.9,0.7c6.2-3,4.7-2.6,4.7-2.6
			S928.9,529.7,947.8,523z"/>
		<path class="st3" d="M943.4,520.4c0,0,22.5-31.5,73.2-19.8c0,0-9,9-29.1,9.3c0,0-7.8,6.9-14.7,6.2c-6.9-0.6-5.4-0.8-5.4-0.8
			S963.4,520,943.4,520.4z"/>
		<path class="st3" d="M928.9,462.6c0,0,12.7-30.7,57.3-31c0,0-5.8,9.3-22.5,13.5c0,0-5.2,7.2-11.1,8.1c-5.8,0.8-4.6,0.4-4.6,0.4
			S945.6,458.4,928.9,462.6z"/>
		<path class="st3" d="M918.8,440c0,0,5.6-27.7,42.7-35c0,0-3.4,8.7-16.6,14.8c0,0-3.2,6.9-7.9,8.4c-4.7,1.6-3.8,1.1-3.8,1.1
			S932,433.7,918.8,440z"/>
		<path class="st3" d="M910.6,422.3c0,0-3.6-19.4,18.5-34c0,0,0.1,6.5-6.9,14c0,0-0.2,5.3-2.9,7.6c-2.6,2.3-2.2,1.7-2.2,1.7
			S917.6,414.8,910.6,422.3z"/>
		<path class="st3" d="M902.4,409c0,0-3.6-19.4,18.5-34c0,0,0.1,6.5-6.9,14c0,0-0.2,5.3-2.9,7.6c-2.6,2.3-2.2,1.7-2.2,1.7
			S909.3,401.5,902.4,409z"/>
		<path class="st3" d="M934.2,466.3c0,0-24.2-22.8-65-4.5c0,0,9.1,6,26.1,2.9c0,0,7.8,4.4,13.4,2.8c5.7-1.7,4.4-1.6,4.4-1.6
			S917.2,469.4,934.2,466.3z"/>
	</g>
	<g>
		<path class="st21" d="M906.3,543.5c0,0,4.4,55.2,17.9,74.5h65c0,0,13-42.2,13-75.7L906.3,543.5z"/>
		<rect x="904.7" y="535.5" class="st31" width="99.7" height="10.6"/>
	</g>
</g>
<g>
	<g>
		<g>
			<polygon class="st25" points="1341.2,618 1309.1,401.4 1314,401.2 1346.2,618 			"/>
			<polygon class="st25" points="1123.9,618 1091.8,401.4 1096.8,401.2 1128.9,618 			"/>
			<polygon class="st25" points="1272,117.3 1321.9,453.8 1099.6,453.8 1049.8,117.3 			"/>
		</g>
		<g>
			<polygon class="st1" points="977.9,618 1010,401.4 1005.1,401.2 973,618 			"/>
			<polygon class="st1" points="1195.1,618 1227.3,401.4 1222.3,401.2 1190.2,618 			"/>
			<polygon class="st0" points="1047.1,117.3 997.2,453.8 1219.5,453.8 1269.3,117.3 			"/>
		</g>
	</g>
	<g>
		<g>
			<path class="st1" d="M1188.7,327.1v-24.5h-21.5c-1.3-4.6-3.2-8.9-5.7-12.9l15.4-15.4l-17.3-17.3l-15.5,15.5
				c-3.9-2.3-8.2-4.1-12.7-5.4v-21.9h-24.5v21.3c-4.8,1.1-9.4,2.8-13.6,5.1l-14.7-14.7l-17.3,17.3l14,14c-2.9,4.4-5,9.1-6.6,14.2
				h-19.2V327h18.4c1.2,5.6,3.3,10.8,6.1,15.5l-12.7,12.7l17.3,17.3l12.7-12.6c4.7,2.9,10,5.1,15.7,6.4v17.9h24.5v-18.5
				c5.4-1.4,10.3-3.7,14.8-6.6l13.5,13.5l17.3-17.3l-14.1-14.2c2.4-4.4,4.2-9.1,5.3-14.2L1188.7,327.1z M1118,354.5
				c-20.9,0-37.8-17-37.7-37.8c0-20.9,16.9-37.7,37.8-37.7c20.9,0,37.8,17,37.7,37.8C1155.7,337.6,1138.9,354.5,1118,354.5z"/>
			<path class="st1" d="M1118.5,287.7c-16.5,0-29.9,13.4-29.9,29.9s13.4,29.9,29.9,29.9c16.5,0,29.9-13.4,29.9-29.9
				C1148.4,301.1,1135,287.7,1118.5,287.7z M1117.7,336.3c-10.3,0-18.7-8.4-18.7-18.7s8.4-18.7,18.7-18.7c10.3,0,18.7,8.4,18.7,18.7
				C1136.4,328,1128.1,336.3,1117.7,336.3z"/>
		</g>
		<path class="st1" d="M1205.2,223.7l-2.8-13.1l-11.5,2.4c-1.2-2.3-2.7-4.4-4.5-6.3l6.6-10l-11.2-7.3l-6.6,10.1
			c-2.4-0.8-4.9-1.3-7.5-1.4l-2.5-11.8l-13.2,2.8l2.4,11.5c-2.5,1.1-4.7,2.6-6.7,4.3l-9.6-6.3l-7.3,11.2l9.1,6
			c-1.1,2.6-1.7,5.5-1.9,8.4l-10.3,2.2l2.8,13.1l9.9-2.1c1.3,2.9,3,5.4,5,7.6l-5.4,8.3l11.2,7.3l5.4-8.2c2.9,1.1,6,1.7,9.1,1.7
			l2,9.6l13.1-2.8l-2.1-9.9c2.7-1.4,5.1-3.2,7.2-5.3l8.7,5.7l7.3-11.2l-9.2-6c0.8-2.6,1.2-5.4,1.2-8.2L1205.2,223.7z M1170.4,246.4
			c-11.2,2.3-22.2-4.8-24.5-16c-2.3-11.2,4.8-22.2,16-24.5c11.2-2.3,22.2,4.8,24.5,16C1188.8,233.1,1181.7,244.1,1170.4,246.4z"/>
		<path class="st1" d="M1226,284.2l-1.6-7.4l-6.5,1.4c-0.7-1.3-1.5-2.5-2.6-3.5l3.7-5.7l-6.3-4.1l-3.7,5.7c-1.4-0.5-2.8-0.8-4.2-0.8
			l-1.4-6.6l-7.4,1.6l1.4,6.5c-1.4,0.6-2.6,1.4-3.8,2.4l-5.4-3.5l-4.1,6.3l5.1,3.3c-0.6,1.5-1,3.1-1.1,4.7l-5.8,1.2l1.6,7.4l5.6-1.1
			c0.7,1.6,1.7,3,2.9,4.3l-3,4.7l6.3,4.1l3-4.6c1.7,0.6,3.4,0.9,5.1,1l1.1,5.4l7.4-1.6l-1.2-5.6c1.5-0.8,2.9-1.8,4.1-2.9l4.9,3.2
			l4.1-6.3l-5.2-3.4c0.5-1.5,0.7-3,0.7-4.6L1226,284.2z M1206.5,297c-6.3,1.4-12.5-2.7-13.9-9c-1.4-6.3,2.7-12.5,9-13.8
			c6.3-1.4,12.5,2.7,13.9,9C1216.8,289.5,1212.7,295.6,1206.5,297z"/>
	</g>
</g>
<g>
	<g>
		<g>
			<polygon class="st21" points="233.5,506.4 247.9,618 251.9,618 243.9,505.8 			"/>
			<polygon class="st21" points="155.1,506.4 140.7,618 136.9,618 144.7,505.8 			"/>
			<path class="st31" d="M143.9,414.6c0,0,6.3,1,9.3,17.2c3.1,17,1.8,60.4,5.7,65.3s100.7-0.8,101.1,15.4
				c0.2,5.1-18.3,11.8-53.1,12.2c-34.7,0.4-72.1,4.7-83.5-33.9C116.1,466.7,99.3,410.6,143.9,414.6z"/>
			<polygon class="st31" points="238.2,506.4 252.6,618 256.5,618 248.6,505.8 			"/>
			<polygon class="st31" points="161.9,500.2 147.6,618 143.6,618 151.5,499.7 			"/>
		</g>
		<g>
			<polygon class="st25" points="304.2,430.5 289.9,618 286,618 293.8,429.7 			"/>
			<polygon class="st1" points="294.7,430.5 280.3,618 276.4,618 284.3,429.7 			"/>
			<polygon class="st25" points="693.6,430.5 708,618 711.8,618 704,429.7 			"/>
			<polygon class="st1" points="703.2,430.5 717.6,618 721.5,618 713.6,429.7 			"/>
			<g>
				<rect x="273" y="429.6" class="st1" width="463.4" height="9.3"/>
			</g>
		</g>
		<g>
			<g>
				<g>
					<polygon class="st31" points="612.1,350.1 718.2,350.1 687.9,425.1 581.9,425.1 					"/>
					<polygon class="st0" points="710.3,354.2 683.7,420.1 590,420.1 616.6,354.2 					"/>
				</g>
				<g>
					<g>
						<rect x="537.4" y="424.5" class="st25" width="150.7" height="5.7"/>
						<rect x="625.4" y="424.5" class="st21" width="62.6" height="5.7"/>
					</g>
					<g>
						<rect x="672.1" y="426.7" class="st1" width="8.4" height="1.4"/>
						<rect x="659.9" y="426.7" class="st1" width="8.4" height="1.4"/>
						<path class="st1" d="M655,427.5c0,0.6,0.5,1.1,1.1,1.1c0.6,0,1.1-0.5,1.1-1.1c0-0.6-0.5-1.1-1.1-1.1
							C655.4,426.4,655,426.9,655,427.5z"/>
					</g>
					<rect x="569.4" y="424.5" class="st15" width="15.1" height="1.7"/>
				</g>
			</g>
			<g>
				<path class="st3" d="M458.4,467c0,0,50.5-28.1,64.2-24.7c13.7,3.4,19.2,26.6,14,30.1c-5.3,3.5-81.5,33.2-81.5,33.2l3.4-39.7"/>
				<g>
					<polygon class="st10" points="529.4,328.5 519.3,354.7 489,352.5 506.1,320.1 					"/>
					<path class="st10" d="M530.1,330.5c0,0,7.1,1.4,9.1-1.8s1.4-18.2,1.4-18.2s2.3-1.8,1.6-3.1c-0.7-1.3-2.3-4.4-2.3-4.4
						s-4.3-17.7-16.6-17c0,0-13.9-0.3-16.8,14.2c-2.5,12.1-2,25.6-2,25.6s0.5,4.7,5.8,5.2C515.6,331.4,530.1,330.5,530.1,330.5z"/>
					<g>
						<g>
							<path id="XMLID_00000128472633572870208820000009414220047880603832_" class="st3" d="M504.3,324.3c0,0,6.2,1.7,13.8,0.2
								c7.6-1.5,11.5-6.6,10.6-11.5c0,0-4.9-1-6.3-3.2s-1.7-7.7,0.7-8.7c2.3-1.1,5.6,0.8,6.3,3.8c0.8,3.1,0.8,3.1,0.8,3.1l4.2-0.9
								c0,0-1.7-6.6-2.7-8.6c-1-2-1.7-4.7-0.4-5.7s2.3,0.9,4.7,0.2c0,0,3.8,0.1,3.9-3.7c0.2-3.8-4.6-5.9-8.1-5.8
								c-3.5,0.1-11.5-3.9-21,1.6c-9.5,5.5-9,31-9,33.2C502,322.8,503.6,323.9,504.3,324.3z"/>
						</g>
						<g>
							<defs>
								<path id="SVGID_1_" d="M504.3,324.3c0,0,6.2,1.7,13.8,0.2c7.6-1.5,11.5-6.6,10.6-11.5c0,0-4.9-1-6.3-3.2s-1.7-7.7,0.7-8.7
									c2.3-1.1,5.6,0.8,6.3,3.8c0.8,3.1,0.8,3.1,0.8,3.1l4.2-0.9c0,0-1.7-6.6-2.7-8.6c-1-2-1.7-4.7-0.4-5.7s2.3,0.9,4.7,0.2
									c0,0,3.8,0.1,3.9-3.7c0.2-3.8-4.6-5.9-8.1-5.8c-3.5,0.1-11.5-3.9-21,1.6c-9.5,5.5-9,31-9,33.2
									C502,322.8,503.6,323.9,504.3,324.3z"/>
							</defs>
							<clipPath id="SVGID_00000117667173054761542000000006169435256613882248_">
								<use xlink:href="#SVGID_1_"  style="overflow:visible;"/>
							</clipPath>
							<g style="clip-path:url(#SVGID_00000117667173054761542000000006169435256613882248_);">
								<g>
									<path class="st3" d="M528.7,276.1c-10-2-19.7,2.8-25.9,10.6c-7.3,9.3-8.9,21.6-9.6,33c-0.2,3.4,5,3.4,5.3,0
										c0.7-9.6,1.8-19.6,7.2-27.8c4.6-7.1,13.1-12.5,21.8-10.8C530.6,281.8,532,276.8,528.7,276.1L528.7,276.1z"/>
								</g>
							</g>
						</g>
						<g>
							<defs>
								<path id="SVGID_00000123424596692522128170000003888334273595887008_" d="M504.3,324.3c0,0,6.2,1.7,13.8,0.2
									c7.6-1.5,11.5-6.6,10.6-11.5c0,0-4.9-1-6.3-3.2s-1.7-7.7,0.7-8.7c2.3-1.1,5.6,0.8,6.3,3.8c0.8,3.1,0.8,3.1,0.8,3.1l4.2-0.9
									c0,0-1.7-6.6-2.7-8.6c-1-2-1.7-4.7-0.4-5.7s2.3,0.9,4.7,0.2c0,0,3.8,0.1,3.9-3.7c0.2-3.8-4.6-5.9-8.1-5.8
									c-3.5,0.1-11.5-3.9-21,1.6c-9.5,5.5-9,31-9,33.2C502,322.8,503.6,323.9,504.3,324.3z"/>
							</defs>
							<clipPath id="SVGID_00000035518494417701428680000001997475085961217672_">
								<use xlink:href="#SVGID_00000123424596692522128170000003888334273595887008_"  style="overflow:visible;"/>
							</clipPath>
							<g style="clip-path:url(#SVGID_00000035518494417701428680000001997475085961217672_);">
								<g>
									<path class="st66" d="M532.1,275.7c-12-4.4-24.6,2.7-30.3,13.3c-7.1,13-5,28.2-2.8,42.2c0.5,3.3,5.6,2,5-1.4
										c-1.8-11.8-3.8-24.7,1.2-36.1c4.3-9.7,14.6-16.9,25.4-13C533.9,281.9,535.2,276.8,532.1,275.7L532.1,275.7z"/>
								</g>
							</g>
						</g>
					</g>
					<path class="st3" d="M535.5,293.2c-2.6-3.9-6.6-7.5-12.2-7.2c0,0-13.9-0.3-16.8,14.2c-2,9.6-2.1,20.3-2.1,24.1
						c0.1,0,6.2,1.7,13.8,0.2c7.6-1.5,11.5-6.6,10.6-11.5c0,0-4.9-1-6.3-3.2c-1.4-2.2-1.7-7.7,0.7-8.7c2.3-1.1,5.6,0.8,6.3,3.8
						c0.8,3.1,0.8,3.1,0.8,3.1l4.2-0.9c0,0-1.7-6.6-2.7-8.6c-1-2-1.7-4.7-0.4-5.7C532.7,292.1,533.6,293.5,535.5,293.2z"/>
				</g>
				<g>
					<path class="st4" d="M464.6,472.8c0,0,87.2,0.2,91.9,8.6c4.7,8.5,25.9,123.4,25.9,123.4l-15.1,4.1c0,0-30.1-73.3-36.4-97.8
						c0,0-86.2,10.1-95,9.4c-8.7-0.7-0.6-1-0.6-1L464.6,472.8z"/>
				</g>
				<g>
					<path class="st3" d="M511.1,471.5c0,0,16.1,29,85.8,65l10.2-8.3c0,0-75-88.2-85.3-85.8C511.6,444.7,504.9,458.1,511.1,471.5z"
						/>
				</g>
				<g>
					<path class="st4" d="M398.3,500.8c0,0,10,23.3,41.8,18.9c31.7-4.4,35.8-22.6,37.2-35.6c0.5-4.3,2.3-10.1,5-16.6
						c-50,6-77.3,0.3-90.4-4.5C391.5,475.6,393.4,488.4,398.3,500.8z"/>
					<g>
						<g>
							<path id="XMLID_00000009578362238418672160000016332145490244572562_" class="st0" d="M533.1,356
								C519,341.8,509,337.4,509,337.4s-17.3-12.3-42-0.9c-20.4,9.4-73.5,66.5-75.2,126.5c13,4.8,40.4,10.6,90.4,4.5
								c5.4-13.1,14.5-28.9,22.8-39.6C517.7,412,544.5,367.4,533.1,356z"/>
						</g>
						<g>
							<defs>
								<path id="SVGID_00000116208412675364440940000011210381209481220539_" d="M533.1,356C519,341.8,509,337.4,509,337.4
									s-17.3-12.3-42-0.9c-20.4,9.4-73.5,66.5-75.2,126.5c13,4.8,40.4,10.6,90.4,4.5c5.4-13.1,14.5-28.9,22.8-39.6
									C517.7,412,544.5,367.4,533.1,356z"/>
							</defs>
							<clipPath id="SVGID_00000089537369887396400120000009132049437825176494_">
								<use xlink:href="#SVGID_00000116208412675364440940000011210381209481220539_"  style="overflow:visible;"/>
							</clipPath>
							<g style="clip-path:url(#SVGID_00000089537369887396400120000009132049437825176494_);">
								<g>
									<path class="st68" d="M489,319.2c-41.9,23.8-74.1,62.7-91,107.8c-4.7,12.8-8.2,25.9-10.2,39.4c-1.2,7.7,10.6,10.5,11.7,2.8
										c6.8-45.3,30-87.2,64.4-117.4c9.6-8.5,20.3-15.9,31.5-22.3C502.2,325.5,495.7,315.3,489,319.2L489,319.2z"/>
								</g>
							</g>
						</g>
					</g>
				</g>
				<path class="st1" d="M653,422.9c0.2,0.6,0,1.3-0.6,1.6l0,0c-0.6,0.2-1.3,0-1.6-0.6l-10.1-23.7c-0.2-0.6,0-1.3,0.6-1.6l0,0
					c0.6-0.2,1.3,0,1.6,0.6L653,422.9z"/>
				<g>
					<g>
						<path class="st0" d="M556.7,387.4c-10.9-15.5-23.7-37.3-36.6-39.2c0,0-19.1,1.9-18.4,17.2c0.4,9,15.7,28,32.2,42.5
							C546.6,401,553.3,392.9,556.7,387.4z"/>
						<path class="st10" d="M571.6,402.7c-4.4-1.3-9.3-7.5-14.8-15.2c-3.4,5.6-10.1,13.6-22.8,20.6c11.4,10,23.4,17.8,31.4,18.7
							c19.8,2.1,62.7-1.9,62.7-1.9l3.1-9.6C631.2,415.1,584.5,406.4,571.6,402.7z"/>
					</g>
					<path class="st10" d="M624.8,416.8c0,0,3.8,1.3,5.3-0.8c1.5-2,6-6.6,9.1-7.2c3.2-0.7,11.3-2.9,12,2.2
						c0.7,5.1-0.3,10.4-5.1,12.1c-4.9,1.7-20.9,1.9-20.9,1.9L624.8,416.8z"/>
				</g>
			</g>
		</g>
		<g>
			<g>
				<path class="st25" d="M295,429.6h71.6c3.2,0,5.7-2.6,5.7-5.7h-83C289.3,427,291.8,429.6,295,429.6z"/>
				<path class="st25" d="M379.8,420.8l28.1-65.9c1.2-2.9-0.2-6.3-3-7.5l-32.6,76.3C375.2,425.1,378.6,423.8,379.8,420.8z"/>
			</g>
			<g>
				<path class="st27" d="M280.8,420.6c0,0,14.4,0.7,16.8-1.3c2.4-2,2.4-1.4,5.4-1.3c2.9,0.2,9.2,4.7,9.3,3.1
					c0.2-1.7-10.9-10.8-13.7-10.1c-2.8,0.6-17,3.4-17,3.4L280.8,420.6z"/>
				<g>
					<g>
						<path id="XMLID_00000093872979851610821950000013108030761228334990_" class="st69" d="M168.1,377.6c0,0-43.7-11.3-23.7-43.6
							c0,0-0.2-11,5.4-13.4c5.6-2.4,6.6-4.2,5.9-6.8c-0.8-2.6-2.1-8.4,2.3-13.8c4.4-5.4,9.9-2.7,12.9-5.1s3.1-9.8,6.1-14
							s18.2-14.5,32.9-4.5s9,23.9,9,30.4s4.3,11.2,3.6,17.7c-0.7,6.5-4.9,10.9-8.9,11.8c-3.9,0.9-3.9,2.7-3.5,4.6
							c0.4,1.9-2.4,11-5.8,21.6C197.7,382.8,168.1,377.6,168.1,377.6z"/>
					</g>
					<g>
						<defs>
							<path id="SVGID_00000133518269023749540050000011429646170698693025_" d="M168.1,377.6c0,0-43.7-11.3-23.7-43.6
								c0,0-0.2-11,5.4-13.4c5.6-2.4,6.6-4.2,5.9-6.8c-0.8-2.6-2.1-8.4,2.3-13.8c4.4-5.4,9.9-2.7,12.9-5.1s3.1-9.8,6.1-14
								s18.2-14.5,32.9-4.5s9,23.9,9,30.4s4.3,11.2,3.6,17.7c-0.7,6.5-4.9,10.9-8.9,11.8c-3.9,0.9-3.9,2.7-3.5,4.6
								c0.4,1.9-2.4,11-5.8,21.6C197.7,382.8,168.1,377.6,168.1,377.6z"/>
						</defs>
						<clipPath id="SVGID_00000098207118910339102000000006313221991268212158_">
							<use xlink:href="#SVGID_00000133518269023749540050000011429646170698693025_"  style="overflow:visible;"/>
						</clipPath>
						<g style="clip-path:url(#SVGID_00000098207118910339102000000006313221991268212158_);">
							<g>
								<path class="st71" d="M206.9,266.9c-11.5-4.7-24.9-0.4-31.4,10.4c-2.7,4.5-2.9,12.7-9,13.9c-4.7,0.9-9.8-0.1-12.7,4.7
									c-2.9,4.6,0.2,9.9-1.7,14.5c-1.1,2.9-4.8,4.2-6.9,6.5c-1.9,2.1-3,4.7-3.9,7.4c-5,13.8-7.5,28.6-8.2,43.1
									c-0.2,3.4,5.1,3.4,5.3,0c0.8-13.3,3.1-26.5,7.2-39.3c1-2.9,1.9-6.2,4.2-8.4c1.8-1.7,4.1-2.7,5.7-4.7c3.2-4,1.9-8.7,2.1-13.4
									c0.3-6.5,7.3-4.4,11.8-5.7c4.4-1.4,6.4-5.1,7.9-9.1c2-5.4,4.1-10.1,9.3-13.4c5.8-3.7,12.7-3.8,19-1.4
									C208.7,273.3,210,268.1,206.9,266.9L206.9,266.9z"/>
							</g>
						</g>
					</g>
				</g>
				<g>
					<g>
						<path class="st27" d="M214,293.3c-1.9-2.3-3.8-7.8-6.7-11.2c-0.9-1-2.3-1.7-3.9-2.2c-0.2,2.5-1.9,14-11.5,17.1
							c-0.2,0.1-0.3,0.1-0.5,0.2c0,0-2.2-2.9-5-0.5c-2.9,2.5-0.9,8.9,3.6,9.6c0,0,3.1,9.3-5.7,12.8c0,9.9-10.1,24-10.1,24l25.4-2.5
							c0,0-0.8-20,3.4-21c4.1-1.1,8.8-1.4,10.2-4.6c1.4-3.2,1.1-14.6,1.1-14.6s3-0.5,3.2-1.3C217.6,298.5,215.9,295.6,214,293.3z"/>
					</g>
				</g>
				<path class="st27" d="M176.3,344.3c0,0,8-12.6,15.4-6.4c9.6,7.9,23.1,59.1,28.3,62.3c5.1,3.2,63.3,13.9,63.3,13.9l-0.5,6.4
					c0,0-67.5,8.1-82.5-3.7c-15-11.7-23.4-37.5-25.7-48.2C174.7,368.6,170.3,348.3,176.3,344.3z"/>
				<g>
					<g>
						<path class="st40" d="M290.7,496.2c0,0,12.7,87.6,21.9,108.5l16.4-2.9c0,0-7.4-83.1-9-106.2L290.7,496.2z"/>
					</g>
					<g>
						<path class="st1" d="M160.4,443.7c-4.5,6.8-10.1,14.9-13.8,33.4c-7.5,37.5,36.8,35.6,36.8,35.6c52.1-0.8,41.6-31,39.7-39.9
							c-1.1-4.8-3.5-15.7-5.4-26.9C197.8,446.3,173.1,444.6,160.4,443.7z"/>
						<path class="st3" d="M225.7,387.5c12.1-17.9-4.9-28.3-8.1-30.1c-3.2-2-9.1-15.5-13.2-18.3c-6.3-4.2-24.2-5.9-24.2-5.9
							c-9.7,9.2-10.9,31.7-10.9,31.7c-0.5,6,3.5,21.2,2.4,52.9c-0.5,14-6.8,18.8-11.4,25.9c12.7,1,37.5,2.6,57.3,2.2
							c-1.7-9.6-6.2-20.1-6.6-26.5C209.1,390.1,215.8,402.2,225.7,387.5z"/>
					</g>
					<g>
						<path class="st1" d="M211.9,461.4c0,0,91.2,0.5,99.3,10.1s34.4,130.2,34.4,130.2l-17.9,0.6c0,0-33.5-79.1-36.5-103.4
							c0,0-96.2,15.8-117.3,13.1C153.2,509.2,211.9,461.4,211.9,461.4z"/>
					</g>
				</g>
				<g>
					<path class="st27" d="M301.1,423.1c0,0,10.9,2,13.6,0.6c2.9-1.4,5.7-3.9,8.5-3.2c2.9,0.8,9.3,4.5,10.2,3.2
						c1.2-1.7-11.8-10.9-14.5-10.2c-2.8,0.6-17.7,2.7-17.7,2.7L301.1,423.1z"/>
					<path class="st27" d="M304.8,416.2c0,0-59.9-6-65.9-9.2c-3.4-1.9-33.9-55.2-36.9-59.8c-8.1-12.7-19.7-6.3-19.7-6.3
						c-9,8.2,2,29.2,2,29.2c1.2,5,28.8,46.2,38.1,52.5c17.4,11.7,84.9,1.2,84.9,1.2L304.8,416.2z"/>
				</g>
			</g>
		</g>
		<g>
			<polygon class="st21" points="487,505.8 501.4,618 505.3,618 497.9,508.6 			"/>
			<polygon class="st21" points="426,505.8 411.6,618 407.7,618 415.6,505.2 			"/>
			<path class="st31" d="M413.3,415.1c0,0,32.9-0.2,40.6,15.3c7.8,15.5,9.2,58.6,13,63.5c3.9,4.9,39.8,13,41.5,18
				c1.7,4.9-18.4,11.8-53.3,12.3c-34.9,0.4-78.5-9.6-84-34.1C365.7,465.5,368.6,411,413.3,415.1z"/>
			<polygon class="st31" points="452.3,505.8 466.8,618 470.7,618 462.8,505.2 			"/>
			<polygon class="st31" points="395.3,499.7 380.9,618 377,618 384.9,499.1 			"/>
		</g>
	</g>
	<g>
		<g>
			<g>
				<path class="st40" d="M599.8,612.2c-0.8-7.6-10.3-4.5-16.2-4.4c1.7,0.6,3.9,1.5,1.7,2.8c-3.2,1.8-11.2,2.6-13.9,0.5
					c-0.4,2.1,0,4.7,0.5,6.5C572.3,619.9,600,614.2,599.8,612.2z"/>
			</g>
		</g>
		<g>
			<g>
				<path class="st10" d="M585.2,610.6c2.2-1.2,2.6-3.1-1.2-2.8c-3.4,0.2-6.3-0.3-6.9-0.5c-1.7-0.3-2.9-2.6-2.9-2.6l-2.9,0.6
					c0,0,0.1,5.2-0.1,5.8C574.1,613.1,582,612.4,585.2,610.6z"/>
			</g>
		</g>
	</g>
	<g>
		<g>
			<g>
				<path class="st40" d="M343.4,609.6c-0.8-7.6-10.3-4.5-16.2-4.4c1.7,0.6,3.9,1.5,1.7,2.8c-3.2,1.8-11.2,2.6-13.9,0.5
					c-0.4,2.1,0,4.7,0.5,6.5C316,617.3,343.7,611.6,343.4,609.6z"/>
			</g>
		</g>
		<g>
			<g>
				<path class="st27" d="M328.9,608c2.2-1.2,2.6-3.1-1.2-2.8c-3.4,0.2-6.3-0.3-6.9-0.5c-1.7-0.3-2.9-2.6-2.9-2.6l-2.9,0.6
					c0,0,0.1,5.2-0.1,5.8C317.8,610.5,325.7,609.8,328.9,608z"/>
			</g>
		</g>
	</g>
	<g>
		<g>
			<g>
				<path class="st40" d="M625.5,528.1c-4-6.6-11.2,0.4-16.5,3c1.8-0.2,4.1-0.3,2.7,1.8c-2.1,3-9,7.1-12.4,6.5c0.5,2,2,4.3,3.2,5.7
					C604,546.8,626.6,529.8,625.5,528.1z"/>
			</g>
		</g>
		<g>
			<g>
				<path class="st10" d="M611.7,532.9c1.4-2,1-3.8-2.3-2c-2.9,1.7-5.8,2.4-6.4,2.6c-1.7,0.5-3.7-1.1-3.7-1.1l-2.4,1.8
					c0,0,2.3,4.7,2.4,5.3C602.8,539.9,609.6,535.9,611.7,532.9z"/>
			</g>
		</g>
	</g>
	<g>
		<g>
			<g>
				<path class="st40" d="M357.8,611.3c0.1-7.7-9.7-5.7-15.5-6.3c1.7,0.8,3.7,2,1.4,2.9c-3.5,1.4-11.4,1.2-13.9-1.1
					c-0.7,2-0.5,4.7-0.3,6.5C329.6,615.6,357.7,613.3,357.8,611.3z"/>
			</g>
		</g>
		<g>
			<g>
				<path class="st27" d="M343.5,608c2.3-1,2.9-2.7-0.9-2.9c-3.4-0.2-6.2-1.1-6.9-1.3c-1.7-0.5-2.5-2.9-2.5-2.9l-3,0.3
					c0,0-0.6,5.1-0.8,5.7C332.2,609.1,340.1,609.3,343.5,608z"/>
			</g>
		</g>
	</g>
</g>
<g>
	<g>
		<g>
			<path class="st1" d="M911,263.4c-6.9-18.7-12.7,7-16.9,5.2c-22.5-9.7-56.1-16.6-60.2-15.7c-4,2.3-22.1,42-26.5,66.4
				c-10.8,58.4-10.9,261.2-11.2,281.8c0,1,0.7,1.8,1.6,1.9l6,0.9c0.9,0.2,1.8-0.4,2-1.3c3.8-12.2,29.5-94.3,43.6-165.3
				c9.7-48.8,15.8-90.3,18.3-91.8c6.8,21.4,5.4,220.1,9.6,258.7c0.7,6.4,12.8,1.4,12.8-3.8c0-23,28.6-99,36.2-174
				C931.8,374.8,921.4,291.3,911,263.4z"/>
		</g>
	</g>
	<path class="st15" d="M910.9,206.7c0.9-13.8,3.2-28.7-2.1-38.6c-5.3-9.9-38.7-13-38.7-13c-11.8-0.8-44.9,2.8-54.2,11.8
		c-7.9,7.7,0,46.5,3.8,68.9c0.1,5.2,1.3,31.7,3.3,36.8c1.6,4.2,34.1,4.7,58.7,2.7s28.1-4.2,29.2-11.9c0.8-6.1-0.4-22.8-1.1-39.2
		C910.3,217,910.7,210.7,910.9,206.7z"/>
	<path class="st7" d="M1029.8,162.2c0,0,20.7-12.4,33.5-14.4s18.6-0.1,17.9,1.1c-0.6,1.2-18.9,3.2-19.9,5.5s-2.7,11.1-5.1,13.1
		c-2.3,1.9-9.7,1.2-14.6,1.8c-5,0.6-12.1,5.3-12.1,5.3L1029.8,162.2z"/>
	<path class="st27" d="M1036.1,166.7c-1.8-2.5-4-4.3-6.3-5.5c0,0-1.5-1.1-3.8-1.4c-8.5-2.2-18.8,0.6-27,2.8
		c-11.7,3.1-23,7.2-34,12.3c-4.3,0.4-8,0.4-10.9-0.1c-18.3-3.2-68.2-21.5-83.4-17.2c-15.2,4.4,5.5,18.2,7.4,20.8
		c0,0,33.6,26.3,76.7,20.7c5-0.4,10-1.1,14.9-2c14.3-2.4,28.5-5.5,42.6-8.9c3.6-0.8,7-1.7,10.5-2.6c3.4-0.8,6.9-1.4,10.1-2.8
		C1039.7,180.4,1039.8,172,1036.1,166.7z"/>
	<path class="st27" d="M908.8,168.1c-5.3-9.9-38.7-13-38.7-13c-3.2-0.3-8-0.1-13.4,0.4c-1.1,5.8,0.7,14.2,0.6,19.5
		c0,9.1,1.4,17.7,2.7,26.6c1.6,11.5,1.8,22.8,4.4,34c1.5,6.4,4.1,12.5,5.6,19c1.9,8-0.4-0.1,1.8,7.8c1.2,4.4,2.4,8.7,3.6,13.1
		c1-0.1,5.5-0.2,6.5-0.3c24.7-2,28.1-4.2,29.2-11.9c0.8-6.1-0.4-22.8-1.1-39.2c0.4-7.2,0.7-13.5,1-17.5
		C911.7,192.9,914.1,177.9,908.8,168.1z"/>
	<g>
		<path class="st7" d="M730,193.7c0,0-3.3-6.5-3.7-8.5c-0.4-2-1.6-4.1-2.8-5.6c-1.1-1.5-7.6-5-7.9-4.3c-0.4,0.8,0,1.9,2.1,3.5
			c1,0.8,1.4,2,1.4,2s-3.4-1.3-4.8-2c-1.9-1-3.5-1.7-4.7-2.2c-2-0.9-3.6-1.5-4.9-1.1c0,0-0.9,1.6-0.2,4.6c1.1,4.7,5.3,5.6,11.6,9.5
			c3.8,2.4,7.6,7.4,7.6,7.4L730,193.7z"/>
		<path class="st15" d="M817.1,166c0,0-10.1,6.8-29.3,28.6c-14.2,16.2-21.9,24.7-24.9,27.9c-4.6-7.9-10.9-14.7-16.8-21.8
			c-3-3.7-5.6-7.6-8.2-11.7c-1.7-2.7-4.4-4.4-7.7-3.5c-1.9,0.5-3.5,1.8-4.6,3.3l-6.1,5.9c0,0,26,68.8,57.2,54.8
			c21.3-9.5,49.6-51.1,49.6-51.1L817.1,166z"/>
	</g>
	<g>
		<g>
			<path class="st40" d="M868,136.5c0,0,0.1-18.7-2-26.3c-2-7.7-2.7-12.4-9.3-15.5s-26-3.8-32.1-1.8c-6.2,2-5,5.7-1.3,8.1
				c2.9,2,8.8,2.7,8.8,2.7s7.8,16.6,14.1,24.6C852.3,136.1,868,136.5,868,136.5z"/>
			<path class="st7" d="M822.4,124.8c-0.7-1.1,5-11.4,6.3-14.2c1-2,1.3-7.4,1.3-7.4l17.6,0.4l-1.7,13.2l5.4,2.8c0,0,0.4-4.4,3.4-6.3
				c1.6-1.1,2.9-0.7,3.8,0.2l0,0c0,0,3.7,3,2,6.5c-1.3,2.5-4.2,4.2-5.8,5l0,0c1.3,4.2,13.1,10.6,13.1,10.6l4.4,19.6
				c-12.9,2-24.3,5.3-24.3,5.3s-3.3-15.1-3.8-16.6c-0.5-1.3-9.3,0.8-12.1-1.7c-2.8-2.4-2.9-14-3.1-15.3
				C828.9,125.5,823.1,125.9,822.4,124.8z"/>
		</g>
		<g>
			<g>
				<g>
					<g>
						<polygon class="st1" points="852.9,156.4 855.2,157.5 857.5,156.8 860.2,167.7 855.8,172.3 851.4,171.6 848.6,167 						"/>
						<path class="st1" d="M851.3,171.5c0,0-3.3,45.1,2.2,70.3l8.5,6.6l6.7-9.4c0,0-11.7-44.3-12.5-67.4L851.3,171.5z"/>
					</g>
				</g>
			</g>
			<path class="st21" d="M870.2,145.3c0,0-3.2,4.9-15.8,11.5l5.3,15.7c0,0,11-12.9,13.4-16.7L870.2,145.3z"/>
			<path class="st21" d="M845.7,149.6c0,0,6.5,6.8,9,7.2l-7.7,14.1c0,0-2.5-12.1-2.4-14.3L845.7,149.6z"/>
		</g>
	</g>
	<g>
		<g>
			<g>
				<path class="st40" d="M783.5,623c-8.8-2,1.8-12,9-13.2c-2,1-4.4,2.4-1.3,3.1c4.4,1.1,10.7-2.9,13.6-5.5c1.1,2,1.2,4.6,1.2,6.4
					C805.9,616.2,790.1,624.4,783.5,623z"/>
			</g>
		</g>
		<g>
			<g>
				<path class="st7" d="M791.4,614c-3.1-0.4-1.3-3.6,0.9-5c7.6-4.4,7.1-7.3,7.1-7.3l3.7-0.1c0,0,1.3,5.1,1.7,5.6
					C802.8,610.2,798,615.1,791.4,614z"/>
			</g>
		</g>
	</g>
	<g>
		<g>
			<g>
				<path class="st40" d="M909.3,619.8c1.2-9-10.5-8.1-17.3-9.7c1.8,1.2,4,2.8,1.2,3.6c-4.3,1.2-13.4-0.4-16.2-3.4
					c-1.1,2.2-1.3,5.4-1.3,7.6C875.7,620.8,909,622.2,909.3,619.8z"/>
			</g>
		</g>
		<g>
			<g>
				<path class="st7" d="M893.2,613.7c2.9-0.8,3.8-2.8-0.6-3.6c-3.9-0.7-7.1-2.1-7.8-2.5c-1.9-0.9-2.5-3.8-2.5-3.8l-3.6-0.2
					c0,0-1.4,6-1.8,6.6C879.7,613.5,889,614.9,893.2,613.7z"/>
			</g>
		</g>
	</g>
	<g>
		<path id="XMLID_00000168813178258507074180000006869784604405166524_" class="st40" d="M880.8,90.1c-1.2-4.8-5.3-8.1-10.1-9.2
			c-5.1-1.2-10.1,0.6-15-0.2c-3.9-0.7-7.2-3.5-10.6-5.3c-8.6-4.7-19.8-4.4-26.4,3.6c-3.6,4.3-4.4,10.1-1.3,14.8
			c3,4.6,8.5,7,13.9,5.6c2.3-0.6,3.4-2.2,3.6-4.1c3.8,1.4,7.7,2.6,11.7,3.5c3.5,0.8,7,1.3,10.6,1.8c1.7,0.2,3.4,0.4,5.2,0.4
			c0.4,0,0.2,1.7,0.6,1.8c0.2,0.6,0.4,0.2,0.5,0.9c0,0.5,0.7,0.4,0.7,1c-0.1,2.4-0.1,4.7-0.2,7.1c-0.1,4.7-0.3,9.4-0.4,14.2
			c0,0.4,0,0.7,0.1,1c-0.1,1.1-0.2,2.1-0.3,3.2c-0.2,2.8,2.5,5.2,5.2,5.2c3,0,5-2.4,5.2-5.2c0.1-0.8,0.1-1.7,0.2-2.5
			c5.1-6.7,7-14.8,7.5-23.2C881.7,99.8,881.9,94.6,880.8,90.1z"/>
	</g>
	<g>
		<defs>
			<path id="SVGID_00000031904208631902153790000001764574590825893003_" d="M880.8,90.1c-1.2-4.8-5.3-8.1-10.1-9.2
				c-5.1-1.2-10.1,0.6-15-0.2c-3.9-0.7-7.2-3.5-10.6-5.3c-8.6-4.7-19.8-4.4-26.4,3.6c-3.6,4.3-4.4,10.1-1.3,14.8
				c3,4.6,8.5,7,13.9,5.6c2.3-0.6,3.4-2.2,3.6-4.1c3.8,1.4,7.7,2.6,11.7,3.5c3.5,0.8,7,1.3,10.6,1.8c1.7,0.2,3.4,0.4,5.2,0.4
				c0.4,0,0.2,1.7,0.6,1.8c0.2,0.6,0.4,0.2,0.5,0.9c0,0.5,0.7,0.4,0.7,1c-0.1,2.4-0.1,4.7-0.2,7.1c-0.1,4.7-0.3,9.4-0.4,14.2
				c0,0.4,0,0.7,0.1,1c-0.1,1.1-0.2,2.1-0.3,3.2c-0.2,2.8,2.5,5.2,5.2,5.2c3,0,5-2.4,5.2-5.2c0.1-0.8,0.1-1.7,0.2-2.5
				c5.1-6.7,7-14.8,7.5-23.2C881.7,99.8,881.9,94.6,880.8,90.1z"/>
		</defs>
		<clipPath id="SVGID_00000042730968703862349540000012073731490574694045_">
			<use xlink:href="#SVGID_00000031904208631902153790000001764574590825893003_"  style="overflow:visible;"/>
		</clipPath>
		<g style="clip-path:url(#SVGID_00000042730968703862349540000012073731490574694045_);">
			<g>
				<path class="st73" d="M877.8,69.1c-4.7,1.2-9.3,4-14.2,4.3c-5.4,0.3-8.5-4-11.1-8.1c-2.2-3.3-7.6-0.2-5.3,3.1
					c3.2,4.8,6.9,9.8,12.9,10.9c6.9,1.3,13.1-2.8,19.5-4.3C883.4,74.2,881.7,68.1,877.8,69.1L877.8,69.1z"/>
			</g>
		</g>
	</g>
</g>
</svg>
